/* XPM */
static char *e9c3e6cfcf844805f15b680d12f19fe7KyaWaST9OVXfm4p6[] = {
/* columns rows colors chars-per-pixel */
"128 128 32 1 ",
"  c #9BD2A4",
". c #57B66C",
"X c #44B25F",
"o c #3DB05B",
"O c #2CAD51",
"+ c #1DAA4A",
"@ c #14A846",
"# c #0DA741",
"$ c #09A439",
"% c #08A337",
"& c #03A132",
"* c #009F2E",
"= c #00A02F",
"- c #07A235",
"; c #09A338",
": c #0EA742",
"> c #18A948",
", c #2AAC50",
"< c #2DAC52",
"1 c #69BF7B",
"2 c #1EA94B",
"3 c #007F00",
"4 c #008100",
"5 c #008200",
"6 c #008000",
"7 c #009E2A",
"8 c #12A745",
"9 c #008300",
"0 c #0CA63E",
"q c #02A030",
"w c #009E2C",
"e c #44B561",
/* pixels */
" .XoOO++@####$%%%%%%%&********************************=-%%%%%%%%%%%%%%%%%%;####################:>++++++++++++++++++++,OOOOOOOO<1",
"23444444555555555555555555555555555555555555555555555555555555555555555555555555555555555555555544444444444444444444444444444467",
"8499999999999999999999999999999999999999999999999999999999999999999999999999999999999999999999999999999999999999999999999999995*",
"#599999999999999999999999999999999999999999999999999999999999999999999999999999999999999999999999999999999999999999999999999995*",
"#599999999999999999999999999999999999999999999999999999999999999999999999999999999999999999999999999999999999999999999999999995*",
"#599999999999999999999999999999999999999999999999999999999999999999999999999999999999999999999999999999999999999999999999999995*",
"#599999999999999999999999999999999999999999999999999999999999999999999999999999999999999999999999999999999999999999999999999995*",
"#599999999999999999999999999999999999999999999999999999999999999999999999999999999999999999999999999999999999999999999999999995*",
"#599999999999999999999999999999999999999999999999999999999999999999999999999999999999999999999999999999999999999999999999999995*",
"0599999999999999999999999999999999999999999999999999999999999999999999999999999999999999999999999999999999999999999999999999995*",
";599999999999999999999999999999999999999999999999999999999999999999999999999999999999999999999999999999999999999999999999999995*",
"%599999999999999999999999999999999999999999999999999999999999999999999999999999999999999999999999999999999999999999999999999995*",
"%599999999999999999999999999999999999999999999999999999999999999999999999999999999999999999999999999999999999999999999999999995*",
"%599999999999999999999999999999999999999999999999999999999999999999999999999999999999999999999999999999999999999999999999999995*",
"%599999999999999999999999999999999999999999999999999999999999999999999999999999999999999999999999999999999999999999999999999995*",
"%599999999999999999999999999999999999999999999999999999999999999999999999999999999999999999999999999999999999999999999999999995*",
"%599999999999999999999999999999999999999999999999999999999999999999999999999999999999999999999999999999999999999999999999999995*",
"%599999999999999999999999999999999999999999999999999999999999999999999999999999999999999999999999999999999999999999999999999995*",
"%599999999999999999999999999999999999999999999999999999999999999999999999999999999999999999999999999999999999999999999999999995*",
"%599999999999999999999999999999999999999999999999999999999999999999999999999999999999999999999999999999999999999999999999999995*",
"%599999999999999999999999999999999999999999999999999999999999999999999999999999999999999999999999999999999999999999999999999995*",
"%599999999999999999999999999999999999999999999999999999999999999999999999999999999999999999999999999999999999999999999999999995*",
"%599999999999999999999999999999999999999999999999999999999999999999999999999999999999999999999999999999999999999999999999999995*",
"%599999999999999999999999999999999999999999999999999999999999999999999999999999999999999999999999999999999999999999999999999995*",
"%599999999999999999999999999999999999999999999999999999999999999999999999999999999999999999999999999999999999999999999999999995*",
"%599999999999999999999999999999999999999999999999999999999999999999999999999999999999999999999999999999999999999999999999999995*",
"%599999999999999999999999999999999999999999999999999999999999999999999999999999999999999999999999999999999999999999999999999995*",
"%599999999999999999999999999999999999999999999999999999999999999999999999999999999999999999999999999999999999999999999999999995*",
"%599999999999999999999999999999999999999999999999999999999999999999999999999999999999999999999999999999999999999999999999999995*",
"*599999999999999999999999999999999999999999999999999999999999999999999999999999999999999999999999999999999999999999999999999995*",
"*599999999999999999999999999999999999999999999999999999999999999999999999999999999999999999999999999999999999999999999999999995*",
"*599999999999999999999999999999999999999999999999999999999999999999999999999999999999999999999999999999999999999999999999999995*",
"*599999999999999999999999999999999999999999999999999999999999999999999999999999999999999999999999999999999999999999999999999995*",
"*599999999999999999999999999999999999999999999999999999999999999999999999999999999999999999999999999999999999999999999999999995*",
"*599999999999999999999999999999999999999999999999999999999999999999999999999999999999999999999999999999999999999999999999999995*",
"*599999999999999999999999999999999999999999999999999999999999999999999999999999999999999999999999999999999999999999999999999995*",
"*599999999999999999999999999999999999999999999999999999999999999999999999999999999999999999999999999999999999999999999999999995*",
"*599999999999999999999999999999999999999999999999999999999999999999999999999999999999999999999999999999999999999999999999999995*",
"*599999999999999999999999999999999999999999999999999999999999999999999999999999999999999999999999999999999999999999999999999995*",
"*599999999999999999999999999999999999999999999999999999999999999999999999999999999999999999999999999999999999999999999999999995*",
"*599999999999999999999999999999999999999999999999999999999999999999999999999999999999999999999999999999999999999999999999999995*",
"*599999999999999999999999999999999999999999999999999999999999999999999999999999999999999999999999999999999999999999999999999995*",
"*599999999999999999999999999999999999999999999999999999999999999999999999999999999999999999999999999999999999999999999999999995*",
"*599999999999999999999999999999999999999999999999999999999999999999999999999999999999999999999999999999999999999999999999999995*",
"*599999999999999999999999999999999999999999999999999999999999999999999999999999999999999999999999999999999999999999999999999995*",
"*599999999999999999999999999999999999999999999999999999999999999999999999999999999999999999999999999999999999999999999999999995*",
"*599999999999999999999999999999999999999999999999999999999999999999999999999999999999999999999999999999999999999999999999999995*",
"*599999999999999999999999999999999999999999999999999999999999999999999999999999999999999999999999999999999999999999999999999995*",
"*599999999999999999999999999999999999999999999999999999999999999999999999999999999999999999999999999999999999999999999999999995*",
"*599999999999999999999999999999999999999999999999999999999999999999999999999999999999999999999999999999999999999999999999999995*",
"*599999999999999999999999999999999999999999999999999999999999999999999999999999999999999999999999999999999999999999999999999995*",
"q599999999999999999999999999999999999999999999999999999999999999999999999999999999999999999999999999999999999999999999999999995*",
"%599999999999999999999999999999999999999999999999999999999999999999999999999999999999999999999999999999999999999999999999999995*",
"%599999999999999999999999999999999999999999999999999999999999999999999999999999999999999999999999999999999999999999999999999995*",
"%599999999999999999999999999999999999999999999999999999999999999999999999999999999999999999999999999999999999999999999999999995*",
"%599999999999999999999999999999999999999999999999999999999999999999999999999999999999999999999999999999999999999999999999999995*",
"%599999999999999999999999999999999999999999999999999999999999999999999999999999999999999999999999999999999999999999999999999995*",
"%599999999999999999999999999999999999999999999999999999999999999999999999999999999999999999999999999999999999999999999999999995*",
"%599999999999999999999999999999999999999999999999999999999999999999999999999999999999999999999999999999999999999999999999999995*",
"%599999999999999999999999999999999999999999999999999999999999999999999999999999999999999999999999999999999999999999999999999995*",
"%599999999999999999999999999999999999999999999999999999999999999999999999999999999999999999999999999999999999999999999999999995*",
"%599999999999999999999999999999999999999999999999999999999999999999999999999999999999999999999999999999999999999999999999999995*",
"%599999999999999999999999999999999999999999999999999999999999999999999999999999999999999999999999999999999999999999999999999995*",
"%599999999999999999999999999999999999999999999999999999999999999999999999999999999999999999999999999999999999999999999999999995*",
"%599999999999999999999999999999999999999999999999999999999999999999999999999999999999999999999999999999999999999999999999999995*",
"%599999999999999999999999999999999999999999999999999999999999999999999999999999999999999999999999999999999999999999999999999995*",
"%599999999999999999999999999999999999999999999999999999999999999999999999999999999999999999999999999999999999999999999999999995*",
"%599999999999999999999999999999999999999999999999999999999999999999999999999999999999999999999999999999999999999999999999999995*",
"%599999999999999999999999999999999999999999999999999999999999999999999999999999999999999999999999999999999999999999999999999995*",
"%599999999999999999999999999999999999999999999999999999999999999999999999999999999999999999999999999999999999999999999999999995*",
"%599999999999999999999999999999999999999999999999999999999999999999999999999999999999999999999999999999999999999999999999999995*",
"%599999999999999999999999999999999999999999999999999999999999999999999999999999999999999999999999999999999999999999999999999995*",
"%599999999999999999999999999999999999999999999999999999999999999999999999999999999999999999999999999999999999999999999999999995*",
"%599999999999999999999999999999999999999999999999999999999999999999999999999999999999999999999999999999999999999999999999999995*",
";599999999999999999999999999999999999999999999999999999999999999999999999999999999999999999999999999999999999999999999999999995*",
"#599999999999999999999999999999999999999999999999999999999999999999999999999999999999999999999999999999999999999999999999999995*",
"#599999999999999999999999999999999999999999999999999999999999999999999999999999999999999999999999999999999999999999999999999995*",
"#599999999999999999999999999999999999999999999999999999999999999999999999999999999999999999999999999999999999999999999999999995*",
"#599999999999999999999999999999999999999999999999999999999999999999999999999999999999999999999999999999999999999999999999999995*",
"#599999999999999999999999999999999999999999999999999999999999999999999999999999999999999999999999999999999999999999999999999995*",
"#599999999999999999999999999999999999999999999999999999999999999999999999999999999999999999999999999999999999999999999999999995*",
"#599999999999999999999999999999999999999999999999999999999999999999999999999999999999999999999999999999999999999999999999999995*",
"#599999999999999999999999999999999999999999999999999999999999999999999999999999999999999999999999999999999999999999999999999995*",
"#599999999999999999999999999999999999999999999999999999999999999999999999999999999999999999999999999999999999999999999999999995*",
"#599999999999999999999999999999999999999999999999999999999999999999999999999999999999999999999999999999999999999999999999999995*",
"#599999999999999999999999999999999999999999999999999999999999999999999999999999999999999999999999999999999999999999999999999995*",
"#599999999999999999999999999999999999999999999999999999999999999999999999999999999999999999999999999999999999999999999999999995*",
"#599999999999999999999999999999999999999999999999999999999999999999999999999999999999999999999999999999999999999999999999999995*",
"#599999999999999999999999999999999999999999999999999999999999999999999999999999999999999999999999999999999999999999999999999995*",
"#599999999999999999999999999999999999999999999999999999999999999999999999999999999999999999999999999999999999999999999999999995*",
"#599999999999999999999999999999999999999999999999999999999999999999999999999999999999999999999999999999999999999999999999999995*",
"#599999999999999999999999999999999999999999999999999999999999999999999999999999999999999999999999999999999999999999999999999995*",
"#599999999999999999999999999999999999999999999999999999999999999999999999999999999999999999999999999999999999999999999999999995*",
"#599999999999999999999999999999999999999999999999999999999999999999999999999999999999999999999999999999999999999999999999999995*",
"#599999999999999999999999999999999999999999999999999999999999999999999999999999999999999999999999999999999999999999999999999995*",
"#599999999999999999999999999999999999999999999999999999999999999999999999999999999999999999999999999999999999999999999999999995*",
">499999999999999999999999999999999999999999999999999999999999999999999999999999999999999999999999999999999999999999999999999995*",
"+499999999999999999999999999999999999999999999999999999999999999999999999999999999999999999999999999999999999999999999999999995*",
"+499999999999999999999999999999999999999999999999999999999999999999999999999999999999999999999999999999999999999999999999999995*",
"+499999999999999999999999999999999999999999999999999999999999999999999999999999999999999999999999999999999999999999999999999995*",
"+499999999999999999999999999999999999999999999999999999999999999999999999999999999999999999999999999999999999999999999999999995*",
"+499999999999999999999999999999999999999999999999999999999999999999999999999999999999999999999999999999999999999999999999999995*",
"+499999999999999999999999999999999999999999999999999999999999999999999999999999999999999999999999999999999999999999999999999995*",
"+499999999999999999999999999999999999999999999999999999999999999999999999999999999999999999999999999999999999999999999999999995*",
"+499999999999999999999999999999999999999999999999999999999999999999999999999999999999999999999999999999999999999999999999999995*",
"+499999999999999999999999999999999999999999999999999999999999999999999999999999999999999999999999999999999999999999999999999995*",
"+499999999999999999999999999999999999999999999999999999999999999999999999999999999999999999999999999999999999999999999999999995*",
"+499999999999999999999999999999999999999999999999999999999999999999999999999999999999999999999999999999999999999999999999999995*",
"+499999999999999999999999999999999999999999999999999999999999999999999999999999999999999999999999999999999999999999999999999995*",
"+499999999999999999999999999999999999999999999999999999999999999999999999999999999999999999999999999999999999999999999999999995*",
"+499999999999999999999999999999999999999999999999999999999999999999999999999999999999999999999999999999999999999999999999999995*",
"+499999999999999999999999999999999999999999999999999999999999999999999999999999999999999999999999999999999999999999999999999995*",
"+499999999999999999999999999999999999999999999999999999999999999999999999999999999999999999999999999999999999999999999999999995*",
"+499999999999999999999999999999999999999999999999999999999999999999999999999999999999999999999999999999999999999999999999999995*",
"+499999999999999999999999999999999999999999999999999999999999999999999999999999999999999999999999999999999999999999999999999995*",
"+499999999999999999999999999999999999999999999999999999999999999999999999999999999999999999999999999999999999999999999999999995*",
"+499999999999999999999999999999999999999999999999999999999999999999999999999999999999999999999999999999999999999999999999999995*",
",499999999999999999999999999999999999999999999999999999999999999999999999999999999999999999999999999999999999999999999999999995*",
"O499999999999999999999999999999999999999999999999999999999999999999999999999999999999999999999999999999999999999999999999999995*",
"O499999999999999999999999999999999999999999999999999999999999999999999999999999999999999999999999999999999999999999999999999995*",
"O499999999999999999999999999999999999999999999999999999999999999999999999999999999999999999999999999999999999999999999999999995*",
"O499999999999999999999999999999999999999999999999999999999999999999999999999999999999999999999999999999999999999999999999999995*",
"O499999999999999999999999999999999999999999999999999999999999999999999999999999999999999999999999999999999999999999999999999995*",
"O499999999999999999999999999999999999999999999999999999999999999999999999999999999999999999999999999999999999999999999999999995*",
"O499999999999999999999999999999999999999999999999999999999999999999999999999999999999999999999999999999999999999999999999999995*",
"O499999999999999999999999999999999999999999999999999999999999999999999999999999999999999999999999999999999999999999999999999995*",
"<655555555555555555555555555555555555555555555555555555555555555555555555555555555555555555555555555555555555555555555555555554w",
"17****************************************************************************************************************************we"
};
