/* XPM */
static char *_f7cd2f222f14bac8afc77991557c35eFpTrPlB9HSgngmdA[] = {
/* columns rows colors chars-per-pixel */
"128 128 23 1 ",
"  c #A9A9A9",
". c gray45",
"X c #686968",
"o c #656565",
"O c #5F5F5F",
"+ c #5E5F5E",
"@ c #5B5B5B",
"# c #5A5A5A",
"$ c #585858",
"% c #555555",
"& c gray32",
"* c #515151",
"= c #505050",
"- c #535353",
"; c #565656",
": c gray35",
"> c #5D5E5D",
", c #8D8D8D",
"< c #020102",
"1 c #040203",
"2 c gray31",
"3 c #050204",
"4 c #828182",
/* pixels */
" .XoO+@#$%%%%&&&&&&&&*=================================*&&&&&&&&&&&&&&&&&&-%%%%%%%%%%%%%%%%%%%%;:####################>OOOOOOOO+,",
"#<1111111111111111111111111111111111111111111111111111111111111111111111111111111111111111111111111111111111111111111111111111<2",
":133333333333333333333333333333333333333333333333333333333333333333333333333333333333333333333333333333333333333333333333333331=",
"%133333333333333333333333333333333333333333333333333333333333333333333333333333333333333333333333333333333333333333333333333331=",
"%133333333333333333333333333333333333333333333333333333333333333333333333333333333333333333333333333333333333333333333333333331=",
"%133333333333333333333333333333333333333333333333333333333333333333333333333333333333333333333333333333333333333333333333333331=",
"%133333333333333333333333333333333333333333333333333333333333333333333333333333333333333333333333333333333333333333333333333331=",
"%133333333333333333333333333333333333333333333333333333333333333333333333333333333333333333333333333333333333333333333333333331=",
"%133333333333333333333333333333333333333333333333333333333333333333333333333333333333333333333333333333333333333333333333333331=",
"%133333333333333333333333333333333333333333333333333333333333333333333333333333333333333333333333333333333333333333333333333331=",
"&133333333333333333333333333333333333333333333333333333333333333333333333333333333333333333333333333333333333333333333333333331=",
"&133333333333333333333333333333333333333333333333333333333333333333333333333333333333333333333333333333333333333333333333333331=",
"&133333333333333333333333333333333333333333333333333333333333333333333333333333333333333333333333333333333333333333333333333331=",
"&133333333333333333333333333333333333333333333333333333333333333333333333333333333333333333333333333333333333333333333333333331=",
"&133333333333333333333333333333333333333333333333333333333333333333333333333333333333333333333333333333333333333333333333333331=",
"&133333333333333333333333333333333333333333333333333333333333333333333333333333333333333333333333333333333333333333333333333331=",
"&133333333333333333333333333333333333333333333333333333333333333333333333333333333333333333333333333333333333333333333333333331=",
"&133333333333333333333333333333333333333333333333333333333333333333333333333333333333333333333333333333333333333333333333333331=",
"&133333333333333333333333333333333333333333333333333333333333333333333333333333333333333333333333333333333333333333333333333331=",
"&133333333333333333333333333333333333333333333333333333333333333333333333333333333333333333333333333333333333333333333333333331=",
"&133333333333333333333333333333333333333333333333333333333333333333333333333333333333333333333333333333333333333333333333333331=",
"&133333333333333333333333333333333333333333333333333333333333333333333333333333333333333333333333333333333333333333333333333331=",
"&133333333333333333333333333333333333333333333333333333333333333333333333333333333333333333333333333333333333333333333333333331=",
"&133333333333333333333333333333333333333333333333333333333333333333333333333333333333333333333333333333333333333333333333333331=",
"&133333333333333333333333333333333333333333333333333333333333333333333333333333333333333333333333333333333333333333333333333331=",
"&133333333333333333333333333333333333333333333333333333333333333333333333333333333333333333333333333333333333333333333333333331=",
"&133333333333333333333333333333333333333333333333333333333333333333333333333333333333333333333333333333333333333333333333333331=",
"&133333333333333333333333333333333333333333333333333333333333333333333333333333333333333333333333333333333333333333333333333331=",
"&133333333333333333333333333333333333333333333333333333333333333333333333333333333333333333333333333333333333333333333333333331=",
"=133333333333333333333333333333333333333333333333333333333333333333333333333333333333333333333333333333333333333333333333333331=",
"=133333333333333333333333333333333333333333333333333333333333333333333333333333333333333333333333333333333333333333333333333331=",
"=133333333333333333333333333333333333333333333333333333333333333333333333333333333333333333333333333333333333333333333333333331=",
"=133333333333333333333333333333333333333333333333333333333333333333333333333333333333333333333333333333333333333333333333333331=",
"=133333333333333333333333333333333333333333333333333333333333333333333333333333333333333333333333333333333333333333333333333331=",
"=133333333333333333333333333333333333333333333333333333333333333333333333333333333333333333333333333333333333333333333333333331=",
"=133333333333333333333333333333333333333333333333333333333333333333333333333333333333333333333333333333333333333333333333333331=",
"=133333333333333333333333333333333333333333333333333333333333333333333333333333333333333333333333333333333333333333333333333331=",
"=133333333333333333333333333333333333333333333333333333333333333333333333333333333333333333333333333333333333333333333333333331=",
"=133333333333333333333333333333333333333333333333333333333333333333333333333333333333333333333333333333333333333333333333333331=",
"=133333333333333333333333333333333333333333333333333333333333333333333333333333333333333333333333333333333333333333333333333331=",
"=133333333333333333333333333333333333333333333333333333333333333333333333333333333333333333333333333333333333333333333333333331=",
"=133333333333333333333333333333333333333333333333333333333333333333333333333333333333333333333333333333333333333333333333333331=",
"=133333333333333333333333333333333333333333333333333333333333333333333333333333333333333333333333333333333333333333333333333331=",
"=133333333333333333333333333333333333333333333333333333333333333333333333333333333333333333333333333333333333333333333333333331=",
"=133333333333333333333333333333333333333333333333333333333333333333333333333333333333333333333333333333333333333333333333333331=",
"=133333333333333333333333333333333333333333333333333333333333333333333333333333333333333333333333333333333333333333333333333331=",
"=133333333333333333333333333333333333333333333333333333333333333333333333333333333333333333333333333333333333333333333333333331=",
"=133333333333333333333333333333333333333333333333333333333333333333333333333333333333333333333333333333333333333333333333333331=",
"=133333333333333333333333333333333333333333333333333333333333333333333333333333333333333333333333333333333333333333333333333331=",
"=133333333333333333333333333333333333333333333333333333333333333333333333333333333333333333333333333333333333333333333333333331=",
"=133333333333333333333333333333333333333333333333333333333333333333333333333333333333333333333333333333333333333333333333333331=",
"=133333333333333333333333333333333333333333333333333333333333333333333333333333333333333333333333333333333333333333333333333331=",
"&133333333333333333333333333333333333333333333333333333333333333333333333333333333333333333333333333333333333333333333333333331=",
"&133333333333333333333333333333333333333333333333333333333333333333333333333333333333333333333333333333333333333333333333333331=",
"&133333333333333333333333333333333333333333333333333333333333333333333333333333333333333333333333333333333333333333333333333331=",
"&133333333333333333333333333333333333333333333333333333333333333333333333333333333333333333333333333333333333333333333333333331=",
"&133333333333333333333333333333333333333333333333333333333333333333333333333333333333333333333333333333333333333333333333333331=",
"&133333333333333333333333333333333333333333333333333333333333333333333333333333333333333333333333333333333333333333333333333331=",
"&133333333333333333333333333333333333333333333333333333333333333333333333333333333333333333333333333333333333333333333333333331=",
"&133333333333333333333333333333333333333333333333333333333333333333333333333333333333333333333333333333333333333333333333333331=",
"&133333333333333333333333333333333333333333333333333333333333333333333333333333333333333333333333333333333333333333333333333331=",
"&133333333333333333333333333333333333333333333333333333333333333333333333333333333333333333333333333333333333333333333333333331=",
"&133333333333333333333333333333333333333333333333333333333333333333333333333333333333333333333333333333333333333333333333333331=",
"&133333333333333333333333333333333333333333333333333333333333333333333333333333333333333333333333333333333333333333333333333331=",
"&133333333333333333333333333333333333333333333333333333333333333333333333333333333333333333333333333333333333333333333333333331=",
"&133333333333333333333333333333333333333333333333333333333333333333333333333333333333333333333333333333333333333333333333333331=",
"&133333333333333333333333333333333333333333333333333333333333333333333333333333333333333333333333333333333333333333333333333331=",
"&133333333333333333333333333333333333333333333333333333333333333333333333333333333333333333333333333333333333333333333333333331=",
"&133333333333333333333333333333333333333333333333333333333333333333333333333333333333333333333333333333333333333333333333333331=",
"&133333333333333333333333333333333333333333333333333333333333333333333333333333333333333333333333333333333333333333333333333331=",
"&133333333333333333333333333333333333333333333333333333333333333333333333333333333333333333333333333333333333333333333333333331=",
"&133333333333333333333333333333333333333333333333333333333333333333333333333333333333333333333333333333333333333333333333333331=",
"&133333333333333333333333333333333333333333333333333333333333333333333333333333333333333333333333333333333333333333333333333331=",
"&133333333333333333333333333333333333333333333333333333333333333333333333333333333333333333333333333333333333333333333333333331=",
"&133333333333333333333333333333333333333333333333333333333333333333333333333333333333333333333333333333333333333333333333333331=",
"%133333333333333333333333333333333333333333333333333333333333333333333333333333333333333333333333333333333333333333333333333331=",
"%133333333333333333333333333333333333333333333333333333333333333333333333333333333333333333333333333333333333333333333333333331=",
"%133333333333333333333333333333333333333333333333333333333333333333333333333333333333333333333333333333333333333333333333333331=",
"%133333333333333333333333333333333333333333333333333333333333333333333333333333333333333333333333333333333333333333333333333331=",
"%133333333333333333333333333333333333333333333333333333333333333333333333333333333333333333333333333333333333333333333333333331=",
"%133333333333333333333333333333333333333333333333333333333333333333333333333333333333333333333333333333333333333333333333333331=",
"%133333333333333333333333333333333333333333333333333333333333333333333333333333333333333333333333333333333333333333333333333331=",
"%133333333333333333333333333333333333333333333333333333333333333333333333333333333333333333333333333333333333333333333333333331=",
"%133333333333333333333333333333333333333333333333333333333333333333333333333333333333333333333333333333333333333333333333333331=",
"%133333333333333333333333333333333333333333333333333333333333333333333333333333333333333333333333333333333333333333333333333331=",
"%133333333333333333333333333333333333333333333333333333333333333333333333333333333333333333333333333333333333333333333333333331=",
"%133333333333333333333333333333333333333333333333333333333333333333333333333333333333333333333333333333333333333333333333333331=",
"%133333333333333333333333333333333333333333333333333333333333333333333333333333333333333333333333333333333333333333333333333331=",
"%133333333333333333333333333333333333333333333333333333333333333333333333333333333333333333333333333333333333333333333333333331=",
"%133333333333333333333333333333333333333333333333333333333333333333333333333333333333333333333333333333333333333333333333333331=",
"%133333333333333333333333333333333333333333333333333333333333333333333333333333333333333333333333333333333333333333333333333331=",
"%133333333333333333333333333333333333333333333333333333333333333333333333333333333333333333333333333333333333333333333333333331=",
"%133333333333333333333333333333333333333333333333333333333333333333333333333333333333333333333333333333333333333333333333333331=",
"%133333333333333333333333333333333333333333333333333333333333333333333333333333333333333333333333333333333333333333333333333331=",
"%133333333333333333333333333333333333333333333333333333333333333333333333333333333333333333333333333333333333333333333333333331=",
";133333333333333333333333333333333333333333333333333333333333333333333333333333333333333333333333333333333333333333333333333331=",
":133333333333333333333333333333333333333333333333333333333333333333333333333333333333333333333333333333333333333333333333333331=",
"#133333333333333333333333333333333333333333333333333333333333333333333333333333333333333333333333333333333333333333333333333331=",
"#133333333333333333333333333333333333333333333333333333333333333333333333333333333333333333333333333333333333333333333333333331=",
"#133333333333333333333333333333333333333333333333333333333333333333333333333333333333333333333333333333333333333333333333333331=",
"#133333333333333333333333333333333333333333333333333333333333333333333333333333333333333333333333333333333333333333333333333331=",
"#133333333333333333333333333333333333333333333333333333333333333333333333333333333333333333333333333333333333333333333333333331=",
"#133333333333333333333333333333333333333333333333333333333333333333333333333333333333333333333333333333333333333333333333333331=",
"#133333333333333333333333333333333333333333333333333333333333333333333333333333333333333333333333333333333333333333333333333331=",
"#133333333333333333333333333333333333333333333333333333333333333333333333333333333333333333333333333333333333333333333333333331=",
"#133333333333333333333333333333333333333333333333333333333333333333333333333333333333333333333333333333333333333333333333333331=",
"#133333333333333333333333333333333333333333333333333333333333333333333333333333333333333333333333333333333333333333333333333331=",
"#133333333333333333333333333333333333333333333333333333333333333333333333333333333333333333333333333333333333333333333333333331=",
"#133333333333333333333333333333333333333333333333333333333333333333333333333333333333333333333333333333333333333333333333333331=",
"#133333333333333333333333333333333333333333333333333333333333333333333333333333333333333333333333333333333333333333333333333331=",
"#133333333333333333333333333333333333333333333333333333333333333333333333333333333333333333333333333333333333333333333333333331=",
"#133333333333333333333333333333333333333333333333333333333333333333333333333333333333333333333333333333333333333333333333333331=",
"#133333333333333333333333333333333333333333333333333333333333333333333333333333333333333333333333333333333333333333333333333331=",
"#133333333333333333333333333333333333333333333333333333333333333333333333333333333333333333333333333333333333333333333333333331=",
"#133333333333333333333333333333333333333333333333333333333333333333333333333333333333333333333333333333333333333333333333333331=",
"#133333333333333333333333333333333333333333333333333333333333333333333333333333333333333333333333333333333333333333333333333331=",
"#133333333333333333333333333333333333333333333333333333333333333333333333333333333333333333333333333333333333333333333333333331=",
">133333333333333333333333333333333333333333333333333333333333333333333333333333333333333333333333333333333333333333333333333331=",
"O133333333333333333333333333333333333333333333333333333333333333333333333333333333333333333333333333333333333333333333333333331=",
"O133333333333333333333333333333333333333333333333333333333333333333333333333333333333333333333333333333333333333333333333333331=",
"O133333333333333333333333333333333333333333333333333333333333333333333333333333333333333333333333333333333333333333333333333331=",
"O133333333333333333333333333333333333333333333333333333333333333333333333333333333333333333333333333333333333333333333333333331=",
"O133333333333333333333333333333333333333333333333333333333333333333333333333333333333333333333333333333333333333333333333333331=",
"O133333333333333333333333333333333333333333333333333333333333333333333333333333333333333333333333333333333333333333333333333331=",
"O133333333333333333333333333333333333333333333333333333333333333333333333333333333333333333333333333333333333333333333333333331=",
"O133333333333333333333333333333333333333333333333333333333333333333333333333333333333333333333333333333333333333333333333333331=",
"+<1111111111111111111111111111111111111111111111111111111111111111111111111111111111111111111111111111111111111111111111111111<2",
",2============================================================================================================================24"
};
