/* XPM */
static char *a32be20fc3df46edc2266936fd42114dM1iSfaJPeji2ylup[] = {
/* columns rows colors chars-per-pixel */
"128 128 25 1 ",
"  c #636300",
". c #989800",
"X c #9F9F00",
"o c #A2A200",
"O c #A8A800",
"+ c #ADAD00",
"@ c #AEAE00",
"# c #B2B200",
"$ c #B5B500",
"% c #BABA00",
"& c #BCBC00",
"* c #C0C000",
"= c #C3C300",
"- c #C2C200",
"; c #BDBD00",
": c #BBBB00",
"> c #B4B400",
", c #AFAF00",
"< c #A9A900",
"1 c #828200",
"2 c yellow",
"3 c #C4C400",
"4 c #B6B600",
"5 c #B0B000",
"6 c #AAAA00",
/* pixels */
" .XoOO+@#$$$$%&&&&&&&*================================-;&&&&&&&&&&&&&&&&&&:$$$$$$$$$$$$$$$$$$$$>,@@@@@@@@@@@@@@@@@@@@<OOOOOOOOO1",
"@2222222222222222222222222222222222222222222222222222222222222222222222222222222222222222222222222222222222222222222222222222223",
"#222222222222222222222222222222222222222222222222222222222222222222222222222222222222222222222222222222222222222222222222222222=",
"$222222222222222222222222222222222222222222222222222222222222222222222222222222222222222222222222222222222222222222222222222222=",
"$222222222222222222222222222222222222222222222222222222222222222222222222222222222222222222222222222222222222222222222222222222=",
"$222222222222222222222222222222222222222222222222222222222222222222222222222222222222222222222222222222222222222222222222222222=",
"$222222222222222222222222222222222222222222222222222222222222222222222222222222222222222222222222222222222222222222222222222222=",
"$222222222222222222222222222222222222222222222222222222222222222222222222222222222222222222222222222222222222222222222222222222=",
"$222222222222222222222222222222222222222222222222222222222222222222222222222222222222222222222222222222222222222222222222222222=",
"4222222222222222222222222222222222222222222222222222222222222222222222222222222222222222222222222222222222222222222222222222222=",
":222222222222222222222222222222222222222222222222222222222222222222222222222222222222222222222222222222222222222222222222222222=",
"&222222222222222222222222222222222222222222222222222222222222222222222222222222222222222222222222222222222222222222222222222222=",
"&222222222222222222222222222222222222222222222222222222222222222222222222222222222222222222222222222222222222222222222222222222=",
"&222222222222222222222222222222222222222222222222222222222222222222222222222222222222222222222222222222222222222222222222222222=",
"&222222222222222222222222222222222222222222222222222222222222222222222222222222222222222222222222222222222222222222222222222222=",
"&222222222222222222222222222222222222222222222222222222222222222222222222222222222222222222222222222222222222222222222222222222=",
"&222222222222222222222222222222222222222222222222222222222222222222222222222222222222222222222222222222222222222222222222222222=",
"&222222222222222222222222222222222222222222222222222222222222222222222222222222222222222222222222222222222222222222222222222222=",
"&222222222222222222222222222222222222222222222222222222222222222222222222222222222222222222222222222222222222222222222222222222=",
"&222222222222222222222222222222222222222222222222222222222222222222222222222222222222222222222222222222222222222222222222222222=",
"&222222222222222222222222222222222222222222222222222222222222222222222222222222222222222222222222222222222222222222222222222222=",
"&222222222222222222222222222222222222222222222222222222222222222222222222222222222222222222222222222222222222222222222222222222=",
"&222222222222222222222222222222222222222222222222222222222222222222222222222222222222222222222222222222222222222222222222222222=",
"&222222222222222222222222222222222222222222222222222222222222222222222222222222222222222222222222222222222222222222222222222222=",
"&222222222222222222222222222222222222222222222222222222222222222222222222222222222222222222222222222222222222222222222222222222=",
"&222222222222222222222222222222222222222222222222222222222222222222222222222222222222222222222222222222222222222222222222222222=",
"&222222222222222222222222222222222222222222222222222222222222222222222222222222222222222222222222222222222222222222222222222222=",
"&222222222222222222222222222222222222222222222222222222222222222222222222222222222222222222222222222222222222222222222222222222=",
"&222222222222222222222222222222222222222222222222222222222222222222222222222222222222222222222222222222222222222222222222222222=",
"=222222222222222222222222222222222222222222222222222222222222222222222222222222222222222222222222222222222222222222222222222222=",
"=222222222222222222222222222222222222222222222222222222222222222222222222222222222222222222222222222222222222222222222222222222=",
"=222222222222222222222222222222222222222222222222222222222222222222222222222222222222222222222222222222222222222222222222222222=",
"=222222222222222222222222222222222222222222222222222222222222222222222222222222222222222222222222222222222222222222222222222222=",
"=222222222222222222222222222222222222222222222222222222222222222222222222222222222222222222222222222222222222222222222222222222=",
"=222222222222222222222222222222222222222222222222222222222222222222222222222222222222222222222222222222222222222222222222222222=",
"=222222222222222222222222222222222222222222222222222222222222222222222222222222222222222222222222222222222222222222222222222222=",
"=222222222222222222222222222222222222222222222222222222222222222222222222222222222222222222222222222222222222222222222222222222=",
"=222222222222222222222222222222222222222222222222222222222222222222222222222222222222222222222222222222222222222222222222222222=",
"=222222222222222222222222222222222222222222222222222222222222222222222222222222222222222222222222222222222222222222222222222222=",
"=222222222222222222222222222222222222222222222222222222222222222222222222222222222222222222222222222222222222222222222222222222=",
"=222222222222222222222222222222222222222222222222222222222222222222222222222222222222222222222222222222222222222222222222222222=",
"=222222222222222222222222222222222222222222222222222222222222222222222222222222222222222222222222222222222222222222222222222222=",
"=222222222222222222222222222222222222222222222222222222222222222222222222222222222222222222222222222222222222222222222222222222=",
"=222222222222222222222222222222222222222222222222222222222222222222222222222222222222222222222222222222222222222222222222222222=",
"=222222222222222222222222222222222222222222222222222222222222222222222222222222222222222222222222222222222222222222222222222222=",
"=222222222222222222222222222222222222222222222222222222222222222222222222222222222222222222222222222222222222222222222222222222=",
"=222222222222222222222222222222222222222222222222222222222222222222222222222222222222222222222222222222222222222222222222222222=",
"=222222222222222222222222222222222222222222222222222222222222222222222222222222222222222222222222222222222222222222222222222222=",
"=222222222222222222222222222222222222222222222222222222222222222222222222222222222222222222222222222222222222222222222222222222=",
"=222222222222222222222222222222222222222222222222222222222222222222222222222222222222222222222222222222222222222222222222222222=",
"=222222222222222222222222222222222222222222222222222222222222222222222222222222222222222222222222222222222222222222222222222222=",
"*222222222222222222222222222222222222222222222222222222222222222222222222222222222222222222222222222222222222222222222222222222=",
"&222222222222222222222222222222222222222222222222222222222222222222222222222222222222222222222222222222222222222222222222222222=",
"&222222222222222222222222222222222222222222222222222222222222222222222222222222222222222222222222222222222222222222222222222222=",
"&222222222222222222222222222222222222222222222222222222222222222222222222222222222222222222222222222222222222222222222222222222=",
"&222222222222222222222222222222222222222222222222222222222222222222222222222222222222222222222222222222222222222222222222222222=",
"&222222222222222222222222222222222222222222222222222222222222222222222222222222222222222222222222222222222222222222222222222222=",
"&222222222222222222222222222222222222222222222222222222222222222222222222222222222222222222222222222222222222222222222222222222=",
"&222222222222222222222222222222222222222222222222222222222222222222222222222222222222222222222222222222222222222222222222222222=",
"&222222222222222222222222222222222222222222222222222222222222222222222222222222222222222222222222222222222222222222222222222222=",
"&222222222222222222222222222222222222222222222222222222222222222222222222222222222222222222222222222222222222222222222222222222=",
"&222222222222222222222222222222222222222222222222222222222222222222222222222222222222222222222222222222222222222222222222222222=",
"&222222222222222222222222222222222222222222222222222222222222222222222222222222222222222222222222222222222222222222222222222222=",
"&222222222222222222222222222222222222222222222222222222222222222222222222222222222222222222222222222222222222222222222222222222=",
"&222222222222222222222222222222222222222222222222222222222222222222222222222222222222222222222222222222222222222222222222222222=",
"&222222222222222222222222222222222222222222222222222222222222222222222222222222222222222222222222222222222222222222222222222222=",
"&222222222222222222222222222222222222222222222222222222222222222222222222222222222222222222222222222222222222222222222222222222=",
"&222222222222222222222222222222222222222222222222222222222222222222222222222222222222222222222222222222222222222222222222222222=",
"&222222222222222222222222222222222222222222222222222222222222222222222222222222222222222222222222222222222222222222222222222222=",
"&222222222222222222222222222222222222222222222222222222222222222222222222222222222222222222222222222222222222222222222222222222=",
"&222222222222222222222222222222222222222222222222222222222222222222222222222222222222222222222222222222222222222222222222222222=",
"&222222222222222222222222222222222222222222222222222222222222222222222222222222222222222222222222222222222222222222222222222222=",
"&222222222222222222222222222222222222222222222222222222222222222222222222222222222222222222222222222222222222222222222222222222=",
"&222222222222222222222222222222222222222222222222222222222222222222222222222222222222222222222222222222222222222222222222222222=",
"&222222222222222222222222222222222222222222222222222222222222222222222222222222222222222222222222222222222222222222222222222222=",
"$222222222222222222222222222222222222222222222222222222222222222222222222222222222222222222222222222222222222222222222222222222=",
"$222222222222222222222222222222222222222222222222222222222222222222222222222222222222222222222222222222222222222222222222222222=",
"$222222222222222222222222222222222222222222222222222222222222222222222222222222222222222222222222222222222222222222222222222222=",
"$222222222222222222222222222222222222222222222222222222222222222222222222222222222222222222222222222222222222222222222222222222=",
"$222222222222222222222222222222222222222222222222222222222222222222222222222222222222222222222222222222222222222222222222222222=",
"$222222222222222222222222222222222222222222222222222222222222222222222222222222222222222222222222222222222222222222222222222222=",
"$222222222222222222222222222222222222222222222222222222222222222222222222222222222222222222222222222222222222222222222222222222=",
"$222222222222222222222222222222222222222222222222222222222222222222222222222222222222222222222222222222222222222222222222222222=",
"$222222222222222222222222222222222222222222222222222222222222222222222222222222222222222222222222222222222222222222222222222222=",
"$222222222222222222222222222222222222222222222222222222222222222222222222222222222222222222222222222222222222222222222222222222=",
"$222222222222222222222222222222222222222222222222222222222222222222222222222222222222222222222222222222222222222222222222222222=",
"$222222222222222222222222222222222222222222222222222222222222222222222222222222222222222222222222222222222222222222222222222222=",
"$222222222222222222222222222222222222222222222222222222222222222222222222222222222222222222222222222222222222222222222222222222=",
"$222222222222222222222222222222222222222222222222222222222222222222222222222222222222222222222222222222222222222222222222222222=",
"$222222222222222222222222222222222222222222222222222222222222222222222222222222222222222222222222222222222222222222222222222222=",
"$222222222222222222222222222222222222222222222222222222222222222222222222222222222222222222222222222222222222222222222222222222=",
"$222222222222222222222222222222222222222222222222222222222222222222222222222222222222222222222222222222222222222222222222222222=",
"$222222222222222222222222222222222222222222222222222222222222222222222222222222222222222222222222222222222222222222222222222222=",
"$222222222222222222222222222222222222222222222222222222222222222222222222222222222222222222222222222222222222222222222222222222=",
"$222222222222222222222222222222222222222222222222222222222222222222222222222222222222222222222222222222222222222222222222222222=",
"$222222222222222222222222222222222222222222222222222222222222222222222222222222222222222222222222222222222222222222222222222222=",
"5222222222222222222222222222222222222222222222222222222222222222222222222222222222222222222222222222222222222222222222222222222=",
"@222222222222222222222222222222222222222222222222222222222222222222222222222222222222222222222222222222222222222222222222222222=",
"@222222222222222222222222222222222222222222222222222222222222222222222222222222222222222222222222222222222222222222222222222222=",
"@222222222222222222222222222222222222222222222222222222222222222222222222222222222222222222222222222222222222222222222222222222=",
"@222222222222222222222222222222222222222222222222222222222222222222222222222222222222222222222222222222222222222222222222222222=",
"@222222222222222222222222222222222222222222222222222222222222222222222222222222222222222222222222222222222222222222222222222222=",
"@222222222222222222222222222222222222222222222222222222222222222222222222222222222222222222222222222222222222222222222222222222=",
"@222222222222222222222222222222222222222222222222222222222222222222222222222222222222222222222222222222222222222222222222222222=",
"@222222222222222222222222222222222222222222222222222222222222222222222222222222222222222222222222222222222222222222222222222222=",
"@222222222222222222222222222222222222222222222222222222222222222222222222222222222222222222222222222222222222222222222222222222=",
"@222222222222222222222222222222222222222222222222222222222222222222222222222222222222222222222222222222222222222222222222222222=",
"@222222222222222222222222222222222222222222222222222222222222222222222222222222222222222222222222222222222222222222222222222222=",
"@222222222222222222222222222222222222222222222222222222222222222222222222222222222222222222222222222222222222222222222222222222=",
"@222222222222222222222222222222222222222222222222222222222222222222222222222222222222222222222222222222222222222222222222222222=",
"@222222222222222222222222222222222222222222222222222222222222222222222222222222222222222222222222222222222222222222222222222222=",
"@222222222222222222222222222222222222222222222222222222222222222222222222222222222222222222222222222222222222222222222222222222=",
"@222222222222222222222222222222222222222222222222222222222222222222222222222222222222222222222222222222222222222222222222222222=",
"@222222222222222222222222222222222222222222222222222222222222222222222222222222222222222222222222222222222222222222222222222222=",
"@222222222222222222222222222222222222222222222222222222222222222222222222222222222222222222222222222222222222222222222222222222=",
"@222222222222222222222222222222222222222222222222222222222222222222222222222222222222222222222222222222222222222222222222222222=",
"@222222222222222222222222222222222222222222222222222222222222222222222222222222222222222222222222222222222222222222222222222222=",
"6222222222222222222222222222222222222222222222222222222222222222222222222222222222222222222222222222222222222222222222222222222=",
"O222222222222222222222222222222222222222222222222222222222222222222222222222222222222222222222222222222222222222222222222222222=",
"O222222222222222222222222222222222222222222222222222222222222222222222222222222222222222222222222222222222222222222222222222222=",
"O222222222222222222222222222222222222222222222222222222222222222222222222222222222222222222222222222222222222222222222222222222=",
"O222222222222222222222222222222222222222222222222222222222222222222222222222222222222222222222222222222222222222222222222222222=",
"O222222222222222222222222222222222222222222222222222222222222222222222222222222222222222222222222222222222222222222222222222222=",
"O222222222222222222222222222222222222222222222222222222222222222222222222222222222222222222222222222222222222222222222222222222=",
"O222222222222222222222222222222222222222222222222222222222222222222222222222222222222222222222222222222222222222222222222222222=",
"O222222222222222222222222222222222222222222222222222222222222222222222222222222222222222222222222222222222222222222222222222222=",
"O2222222222222222222222222222222222222222222222222222222222222222222222222222222222222222222222222222222222222222222222222222223",
"13============================================================================================================================3."
};
